<svg width="36" height="36" viewBox="0 0 36 36" fill="none" xmlns="http://www.w3.org/2000/svg">
<mask id="mask0_2178_307" style="mask-type:alpha" maskUnits="userSpaceOnUse" x="0" y="0" width="36" height="36">
<rect x="0.449921" y="0.299316" width="34.8317" height="34.8317" fill="#D9D9D9"/>
</mask>
<g mask="url(#mask0_2178_307)">
<path d="M4.07822 13.4451V9.45395C4.07822 8.72079 4.3322 8.10023 4.84016 7.59227C5.34813 7.0843 5.96869 6.83032 6.70185 6.83032H29.0297C29.7629 6.83032 30.3834 7.0843 30.8914 7.59227C31.3993 8.10023 31.6533 8.72079 31.6533 9.45395V17.4362H29.4763V9.45395C29.4763 9.3422 29.4298 9.23988 29.3367 9.14699C29.2438 9.05387 29.1415 9.0073 29.0297 9.0073H6.70185C6.5901 9.0073 6.48778 9.05387 6.39489 9.14699C6.30177 9.23988 6.2552 9.3422 6.2552 9.45395V13.4451H4.07822ZM10.6092 24.609C10.399 24.609 10.2055 24.5611 10.0286 24.4653C9.85182 24.3695 9.71697 24.2211 9.62408 24.0201L7.02259 18.8037H4.07822V16.6267H7.70652C7.90753 16.6267 8.09632 16.6769 8.2729 16.7773C8.44972 16.8779 8.58469 17.0288 8.67782 17.2298L10.6092 21.0783L15.4294 11.4245C15.5223 11.2477 15.6594 11.115 15.8408 11.0265C16.0222 10.9382 16.2134 10.894 16.4145 10.894C16.6155 10.894 16.8043 10.9382 16.9808 11.0265C17.1577 11.115 17.2926 11.2477 17.3857 11.4245L20.0399 16.7189C19.7162 16.9291 19.4037 17.1445 19.1023 17.3651C18.8009 17.5855 18.5227 17.8306 18.2678 18.1006L16.4007 14.3659L11.5805 24.0201C11.4873 24.2211 11.3524 24.3695 11.1755 24.4653C10.999 24.5611 10.8102 24.609 10.6092 24.609ZM16.1383 28.6001H6.70185C5.96869 28.6001 5.34813 28.3462 4.84016 27.8382C4.3322 27.3302 4.07822 26.7097 4.07822 25.9765V21.9854H6.2552V25.9765C6.2552 26.0883 6.30177 26.1906 6.39489 26.2835C6.48778 26.3766 6.5901 26.4232 6.70185 26.4232H15.5186C15.5818 26.8102 15.6627 27.1828 15.7614 27.541C15.86 27.899 15.9857 28.2521 16.1383 28.6001ZM25.1224 31.5028C23.3102 31.5028 21.7686 30.8674 20.4977 29.5965C19.2269 28.3256 18.5914 26.7841 18.5914 24.9718C18.5914 23.1596 19.2269 21.6181 20.4977 20.3472C21.7686 19.0763 23.3102 18.4409 25.1224 18.4409C26.9346 18.4409 28.4761 19.0763 29.747 20.3472C31.0179 21.6181 31.6533 23.1596 31.6533 24.9718C31.6533 26.7841 31.0179 28.3256 29.747 29.5965C28.4761 30.8674 26.9346 31.5028 25.1224 31.5028ZM25.4126 25.5858L28.4633 22.5354L27.5588 21.6309L24.5085 24.6816L25.4126 25.5858Z" fill="#1C1B1F"/>
</g>
</svg>
