<svg width="35" height="35" viewBox="0 0 35 35" fill="none" xmlns="http://www.w3.org/2000/svg">
<mask id="mask0_3550_94" style="mask-type:alpha" maskUnits="userSpaceOnUse" x="0" y="0" width="35" height="35">
<rect width="34.8317" height="34.8317" fill="#D9D9D9"/>
</mask>
<g mask="url(#mask0_3550_94)">
<path d="M3.6283 13.1458V9.15463C3.6283 8.42147 3.88228 7.80091 4.39024 7.29295C4.8982 6.78499 5.51876 6.53101 6.25192 6.53101H28.5798C29.3129 6.53101 29.9335 6.78499 30.4415 7.29295C30.9494 7.80091 31.2034 8.42147 31.2034 9.15463V17.1369H29.0264V9.15463C29.0264 9.04288 28.9799 8.94056 28.8867 8.84768C28.7938 8.75455 28.6915 8.70799 28.5798 8.70799H6.25192C6.14017 8.70799 6.03785 8.75455 5.94497 8.84768C5.85184 8.94056 5.80528 9.04288 5.80528 9.15463V13.1458H3.6283ZM10.1592 24.3097C9.94904 24.3097 9.75553 24.2618 9.57871 24.166C9.40189 24.0702 9.26704 23.9218 9.17416 23.7208L6.57266 18.5044H3.6283V16.3274H7.2566C7.45761 16.3274 7.6464 16.3776 7.82298 16.478C7.9998 16.5786 8.13477 16.7294 8.2279 16.9305L10.1592 20.779L14.9794 11.1252C15.0723 10.9483 15.2095 10.8157 15.3909 10.7271C15.5723 10.6389 15.7635 10.5947 15.9645 10.5947C16.1655 10.5947 16.3543 10.6389 16.5309 10.7271C16.7077 10.8157 16.8427 10.9483 16.9358 11.1252L19.5899 16.4196C19.2663 16.6298 18.9538 16.8452 18.6524 17.0658C18.351 17.2861 18.0728 17.5313 17.8179 17.8012L15.9507 14.0666L11.1305 23.7208C11.0374 23.9218 10.9024 24.0702 10.7256 24.166C10.549 24.2618 10.3603 24.3097 10.1592 24.3097ZM15.6884 28.3008H6.25192C5.51876 28.3008 4.8982 28.0468 4.39024 27.5389C3.88228 27.0309 3.6283 26.4104 3.6283 25.6772V21.6861H5.80528V25.6772C5.80528 25.789 5.85184 25.8913 5.94497 25.9842C6.03785 26.0773 6.14017 26.1238 6.25192 26.1238H15.0687C15.1318 26.5109 15.2127 26.8835 15.3114 27.2417C15.4101 27.5997 15.5358 27.9528 15.6884 28.3008ZM24.6725 31.2035C22.8602 31.2035 21.3187 30.568 20.0478 29.2972C18.7769 28.0263 18.1415 26.4847 18.1415 24.6725C18.1415 22.8603 18.7769 21.3188 20.0478 20.0479C21.3187 18.777 22.8602 18.1416 24.6725 18.1416C26.4847 18.1416 28.0262 18.777 29.2971 20.0479C30.568 21.3188 31.2034 22.8603 31.2034 24.6725C31.2034 26.4847 30.568 28.0263 29.2971 29.2972C28.0262 30.568 26.4847 31.2035 24.6725 31.2035ZM24.9627 25.2864L28.0134 22.2361L27.1089 21.3316L24.0585 24.3823L24.9627 25.2864Z" fill="#2260FF"/>
</g>
</svg>
