<svg width="12" height="12" viewBox="0 0 12 12" fill="none" xmlns="http://www.w3.org/2000/svg">
<path d="M9.991 1.59797V1.09797V1.59797ZM10.6788 2.15552H10.1788V2.15552L10.6788 2.15552ZM0.496353 2.15552H-0.00364685H0.496353ZM1.18419 1.59797L1.18419 2.09797L1.18419 1.59797ZM9.991 10.6044V10.1044V10.6044ZM10.6788 10.0469H11.1788H10.6788ZM2.88023 9.22906H3.38023H2.88023ZM2.19162 8.67152L2.19162 9.17152L2.19207 9.17152L2.19162 8.67152ZM0.761209 8.88867L0.445607 9.27648L0.761209 8.88867ZM3.74315 10.6044V11.1044V10.6044ZM2.25364 10.1012L1.93888 10.4897H1.93888L2.25364 10.1012ZM0.841522 3.95684C0.565379 3.95684 0.341522 4.1807 0.341522 4.45684C0.341522 4.73298 0.565379 4.95684 0.841522 4.95684V3.95684ZM10.5925 4.95684C10.8687 4.95684 11.0925 4.73298 11.0925 4.45684C11.0925 4.1807 10.8687 3.95684 10.5925 3.95684V4.95684ZM3.1515 2.75321C3.1515 3.02936 3.37535 3.25321 3.6515 3.25321C3.92764 3.25321 4.1515 3.02936 4.1515 2.75321H3.1515ZM4.1515 0.64502C4.1515 0.368877 3.92764 0.14502 3.6515 0.14502C3.37535 0.14502 3.1515 0.368877 3.1515 0.64502H4.1515ZM7.29352 2.75321C7.29352 3.02936 7.51738 3.25321 7.79352 3.25321C8.06967 3.25321 8.29352 3.02936 8.29352 2.75321H7.29352ZM8.29352 0.64502C8.29352 0.368877 8.06967 0.14502 7.79352 0.14502C7.51738 0.14502 7.29352 0.368877 7.29352 0.64502H8.29352ZM3.60287 5.86275C3.32673 5.86275 3.10287 6.08661 3.10287 6.36275C3.10287 6.63889 3.32673 6.86275 3.60287 6.86275V5.86275ZM3.68917 6.86275C3.96531 6.86275 4.18917 6.63889 4.18917 6.36275C4.18917 6.08661 3.96531 5.86275 3.68917 5.86275V6.86275ZM3.60287 7.47545C3.32673 7.47545 3.10287 7.6993 3.10287 7.97545C3.10287 8.25159 3.32673 8.47545 3.60287 8.47545V7.47545ZM3.68917 8.47545C3.96531 8.47545 4.18917 8.25159 4.18917 7.97545C4.18917 7.6993 3.96531 7.47545 3.68917 7.47545V8.47545ZM5.67389 5.86275C5.39774 5.86275 5.17389 6.08661 5.17389 6.36275C5.17389 6.63889 5.39774 6.86275 5.67389 6.86275V5.86275ZM5.76018 6.86275C6.03632 6.86275 6.26018 6.63889 6.26018 6.36275C6.26018 6.08661 6.03632 5.86275 5.76018 5.86275V6.86275ZM5.67389 7.47545C5.39774 7.47545 5.17389 7.6993 5.17389 7.97545C5.17389 8.25159 5.39774 8.47545 5.67389 8.47545V7.47545ZM5.76018 8.47545C6.03632 8.47545 6.26018 8.25159 6.26018 7.97545C6.26018 7.6993 6.03632 7.47545 5.76018 7.47545V8.47545ZM7.7449 5.86275C7.46876 5.86275 7.2449 6.08661 7.2449 6.36275C7.2449 6.63889 7.46876 6.86275 7.7449 6.86275V5.86275ZM7.83119 6.86275C8.10734 6.86275 8.33119 6.63889 8.33119 6.36275C8.33119 6.08661 8.10734 5.86275 7.83119 5.86275V6.86275ZM7.7449 7.47545C7.46876 7.47545 7.2449 7.6993 7.2449 7.97545C7.2449 8.25159 7.46876 8.47545 7.7449 8.47545V7.47545ZM7.83119 8.47545C8.10734 8.47545 8.33119 8.25159 8.33119 7.97545C8.33119 7.6993 8.10734 7.47545 7.83119 7.47545V8.47545ZM9.991 10.1044H3.74315V11.1044H9.991V10.1044ZM0.996353 8.36033V2.15552H-0.00364685V8.36033H0.996353ZM1.18419 2.09797L9.991 2.09797V1.09797L1.18419 1.09797L1.18419 2.09797ZM10.1788 2.15552V10.0469H11.1788V2.15552L10.1788 2.15552ZM9.991 2.09797C10.0737 2.09797 10.1327 2.1255 10.1625 2.1497C10.1914 2.17309 10.1788 2.17798 10.1788 2.15552L11.1788 2.15552C11.1788 1.47847 10.5438 1.09797 9.991 1.09797V2.09797ZM0.996353 2.15552C0.996353 2.17798 0.983807 2.17309 1.01266 2.1497C1.04251 2.1255 1.1015 2.09797 1.18419 2.09797L1.18419 1.09797C0.631383 1.09797 -0.00364676 1.47847 -0.00364685 2.15552L0.996353 2.15552ZM2.5684 9.71272C2.08308 9.3195 1.4346 8.79204 1.07681 8.50086L0.445607 9.27648C0.803411 9.56766 1.45263 10.0957 1.93888 10.4897L2.5684 9.71272ZM9.991 11.1044C10.5438 11.1044 11.1788 10.7239 11.1788 10.0469H10.1788C10.1788 10.0244 10.1914 10.0293 10.1625 10.0527C10.1327 10.0769 10.0737 10.1044 9.991 10.1044V11.1044ZM2.38023 9.22906L2.38023 10.6144H3.38023L3.38023 9.22906H2.38023ZM0.496353 9.17152L2.19162 9.17152L2.19162 8.17152L0.496353 8.17152L0.496353 9.17152ZM3.38023 9.22906C3.38023 8.55146 2.7443 8.17101 2.19116 8.17152L2.19207 9.17152C2.27484 9.17144 2.33394 9.19897 2.36386 9.22319C2.3928 9.24662 2.38023 9.25155 2.38023 9.22906H3.38023ZM-0.00364685 8.36033C-0.00364685 8.72528 0.171039 9.05303 0.445607 9.27648L1.07681 8.50086C1.01173 8.4479 0.996353 8.39495 0.996353 8.36033H-0.00364685ZM3.74315 10.1044C3.57362 10.1044 3.34269 10.0626 3.10866 9.98377C2.87244 9.90418 2.67898 9.80231 2.5684 9.71272L1.93888 10.4897C2.17317 10.6795 2.48618 10.8293 2.78935 10.9314C3.09471 11.0343 3.43611 11.1044 3.74315 11.1044V10.1044ZM0.841522 4.95684H10.5925V3.95684H0.841522V4.95684ZM4.1515 2.75321V0.64502H3.1515V2.75321H4.1515ZM8.29352 2.75321V0.64502H7.29352V2.75321H8.29352ZM3.60287 6.86275H3.68917V5.86275H3.60287V6.86275ZM3.60287 8.47545H3.68917V7.47545H3.60287V8.47545ZM5.67389 6.86275H5.76018V5.86275H5.67389V6.86275ZM5.67389 8.47545H5.76018V7.47545H5.67389V8.47545ZM7.7449 6.86275H7.83119V5.86275H7.7449V6.86275ZM7.7449 8.47545H7.83119V7.47545H7.7449V8.47545Z" fill="#2260FF"/>
</svg>
