<svg width="34" height="34" viewBox="0 0 34 34" fill="none" xmlns="http://www.w3.org/2000/svg">
<mask id="mask0_2574_920" style="mask-type:alpha" maskUnits="userSpaceOnUse" x="0" y="0" width="34" height="34">
<rect width="34" height="34" fill="#D9D9D9"/>
</mask>
<g mask="url(#mask0_2574_920)">
<path d="M16.3063 22.6667H24.0271L23.3188 19.8333H17.0146L16.3063 22.6667ZM15.9167 17H24.4167C26.3764 17 28.0469 16.3094 29.4281 14.9281C30.8094 13.5469 31.5 11.8764 31.5 9.91667C31.5 7.95694 30.8094 6.28646 29.4281 4.90521C28.0469 3.52396 26.3764 2.83333 24.4167 2.83333H15.9167C13.9569 2.83333 12.2865 3.52396 10.9052 4.90521C9.52396 6.28646 8.83333 7.95694 8.83333 9.91667C8.83333 11.8764 9.52396 13.5469 10.9052 14.9281C12.2865 16.3094 13.9569 17 15.9167 17ZM20.1667 12.75C19.3875 12.75 18.7205 12.4726 18.1656 11.9177C17.6108 11.3628 17.3333 10.6958 17.3333 9.91667C17.3333 9.1375 17.6108 8.47049 18.1656 7.91563C18.7205 7.36076 19.3875 7.08333 20.1667 7.08333C20.9458 7.08333 21.6128 7.36076 22.1677 7.91563C22.7226 8.47049 23 9.1375 23 9.91667C23 10.6958 22.7226 11.3628 22.1677 11.9177C21.6128 12.4726 20.9458 12.75 20.1667 12.75ZM12.375 8.5C12.7764 8.5 13.1128 8.36424 13.3844 8.09271C13.6559 7.82118 13.7917 7.48472 13.7917 7.08333C13.7917 6.68194 13.6559 6.34549 13.3844 6.07396C13.1128 5.80243 12.7764 5.66667 12.375 5.66667C11.9736 5.66667 11.6372 5.80243 11.3656 6.07396C11.0941 6.34549 10.9583 6.68194 10.9583 7.08333C10.9583 7.48472 11.0941 7.82118 11.3656 8.09271C11.6372 8.36424 11.9736 8.5 12.375 8.5ZM8.83333 25.5V22.6667H13.4021L14.1458 19.6917C11.8083 19.2903 9.86632 18.1747 8.31979 16.3448C6.77326 14.5149 6 12.3722 6 9.91667C6 7.15417 6.96215 4.81076 8.88646 2.88646C10.8108 0.962153 13.1542 0 15.9167 0H24.4167C27.1792 0 29.5226 0.962153 31.4469 2.88646C33.3712 4.81076 34.3333 7.15417 34.3333 9.91667C34.3333 12.3722 33.5601 14.5149 32.0135 16.3448C30.467 18.1747 28.525 19.2903 26.1875 19.6917L26.9313 22.6667H31.5V25.5H8.83333ZM20.1667 15.5833C21.725 15.5833 23.059 15.0285 24.1688 13.9187C25.2785 12.809 25.8333 11.475 25.8333 9.91667C25.8333 8.35833 25.2785 7.02431 24.1688 5.91458C23.059 4.80486 21.725 4.25 20.1667 4.25C18.6083 4.25 17.2743 4.80486 16.1646 5.91458C15.0549 7.02431 14.5 8.35833 14.5 9.91667C14.5 11.475 15.0549 12.809 16.1646 13.9187C17.2743 15.0285 18.6083 15.5833 20.1667 15.5833Z" fill="#1C1B1F"/>
</g>
</svg>
