<svg width="34" height="34" viewBox="0 0 34 34" fill="none" xmlns="http://www.w3.org/2000/svg">
<mask id="mask0_2062_1145" style="mask-type:alpha" maskUnits="userSpaceOnUse" x="0" y="0" width="34" height="34">
<rect width="33.5527" height="33.5527" fill="#2260FF"/>
</mask>
<g mask="url(#mask0_2062_1145)">
<path d="M4.75331 28.5199L1.53784 25.3743C1.25823 25.0947 1.11843 24.7685 1.11843 24.3957C1.11843 24.0229 1.25823 23.6967 1.53784 23.4171C3.58829 21.2035 5.95329 19.5434 8.63285 18.4366C11.3124 17.3298 14.0269 16.7765 16.7764 16.7765C19.5258 16.7765 22.2345 17.3298 24.9024 18.4366C27.5703 19.5434 29.9412 21.2035 32.0149 23.4171C32.2945 23.6967 32.4343 24.0229 32.4343 24.3957C32.4343 24.7685 32.2945 25.0947 32.0149 25.3743L28.7994 28.5199C28.5431 28.7762 28.2461 28.916 27.9082 28.9393C27.5703 28.9626 27.2616 28.8694 26.982 28.6597L22.9277 25.584C22.7413 25.4442 22.6015 25.2811 22.5083 25.0947C22.4151 24.9083 22.3685 24.6986 22.3685 24.4656V20.4812C21.4831 20.2016 20.5744 19.9803 19.6423 19.8172C18.7103 19.6541 17.755 19.5725 16.7764 19.5725C15.7978 19.5725 14.8424 19.6541 13.9104 19.8172C12.9784 19.9803 12.0697 20.2016 11.1843 20.4812V24.4656C11.1843 24.6986 11.1377 24.9083 11.0444 25.0947C10.9512 25.2811 10.8114 25.4442 10.625 25.584L6.57075 28.6597C6.29114 28.8694 5.98241 28.9626 5.64456 28.9393C5.3067 28.916 5.00962 28.7762 4.75331 28.5199ZM8.38819 21.4599C7.71248 21.8094 7.06006 22.2113 6.43095 22.6657C5.80183 23.12 5.14942 23.6268 4.47371 24.186L5.87174 25.584L8.38819 23.6268V21.4599ZM25.1646 21.5298V23.6268L27.681 25.584L29.079 24.2559C28.4033 23.6501 27.7509 23.1258 27.1218 22.6831C26.4927 22.2404 25.8403 21.856 25.1646 21.5298ZM15.3783 9.7863V2.79614H18.1744V9.7863H15.3783ZM24.6053 13.7707L22.6481 11.7435L27.6111 6.78053L29.5684 8.80767L24.6053 13.7707ZM8.9474 13.7707L3.98439 8.80767L5.94164 6.78053L10.9046 11.7435L8.9474 13.7707Z" fill="white"/>
</g>
</svg>
