<svg width="33" height="33" viewBox="0 0 33 33" fill="none" xmlns="http://www.w3.org/2000/svg">
<mask id="mask0_3550_82" style="mask-type:alpha" maskUnits="userSpaceOnUse" x="0" y="0" width="33" height="33">
<rect width="33" height="33" fill="#D9D9D9"/>
</mask>
<g mask="url(#mask0_3550_82)">
<path d="M10.3125 4.8125C11.5129 4.8125 12.6473 5.09323 13.7156 5.65469C14.784 6.21615 15.7121 7.02132 16.5 8.07022C17.2879 7.02132 18.216 6.21615 19.2844 5.65469C20.3528 5.09323 21.4871 4.8125 22.6875 4.8125C24.6389 4.8125 26.2726 5.47044 27.5887 6.78631C28.9046 8.10242 29.5625 9.73615 29.5625 11.6875C29.5625 11.8197 29.5568 11.9475 29.5453 12.0708C29.5339 12.1943 29.5237 12.3222 29.5147 12.4544H27.4526C27.4755 12.3222 27.4891 12.1943 27.4935 12.0708C27.4978 11.9475 27.5 11.8197 27.5 11.6875C27.5 10.3125 27.0417 9.16667 26.125 8.25C25.2083 7.33333 24.0625 6.875 22.6875 6.875C21.6017 6.875 20.5982 7.183 19.6769 7.799C18.7559 8.41523 18.0266 9.27243 17.489 10.3706H15.511C14.9645 9.26349 14.2329 8.40411 13.3162 7.79247C12.3995 7.18082 11.3983 6.875 10.3125 6.875C8.94621 6.875 7.80255 7.33333 6.88153 8.25C5.96051 9.16667 5.5 10.3125 5.5 11.6875C5.5 11.8197 5.50218 11.9475 5.50653 12.0708C5.51089 12.1943 5.52452 12.3222 5.54744 12.4544H3.48528C3.47634 12.3222 3.46615 12.1943 3.45469 12.0708C3.44323 11.9475 3.4375 11.8197 3.4375 11.6875C3.4375 9.73615 4.09544 8.10242 5.41131 6.78631C6.72742 5.47044 8.36115 4.8125 10.3125 4.8125ZM8.18675 20.5456H11.0715C11.8048 21.2649 12.6157 22.0437 13.5042 22.8817C14.3927 23.72 15.3913 24.6407 16.5 25.6438C17.6087 24.6407 18.6073 23.72 19.4958 22.8817C20.3843 22.0437 21.1952 21.2649 21.9285 20.5456H24.8346C23.9901 21.4464 23.0095 22.4275 21.8927 23.4888C20.776 24.5498 19.4843 25.7423 18.0177 27.0662L16.5 28.4305L14.9823 27.0662C13.5157 25.7423 12.2274 24.5498 11.1176 23.4888C10.0079 22.4275 9.031 21.4464 8.18675 20.5456ZM15.1938 21.6562C15.4124 21.6562 15.5997 21.5923 15.7558 21.4644C15.9116 21.3368 16.0265 21.1706 16.1006 20.966L18.1816 14.7018L19.702 16.9785C19.8166 17.1442 19.9639 17.2778 20.1438 17.3793C20.3236 17.4806 20.5194 17.5312 20.7309 17.5312H31.2812V15.4688H21.1908L18.7395 11.8171C18.6373 11.6638 18.5038 11.5487 18.3391 11.472C18.1743 11.3954 17.9967 11.3572 17.8062 11.3572C17.5876 11.3572 17.3981 11.421 17.2377 11.5486C17.0773 11.6765 16.9645 11.8426 16.8994 12.0471L14.8184 18.3033L13.2925 16.0215C13.1779 15.8558 13.0308 15.7222 12.8511 15.6207C12.6712 15.5194 12.4755 15.4688 12.264 15.4688H1.71875V17.5312H11.7827L14.2471 21.196C14.3493 21.3582 14.4851 21.4756 14.6544 21.548C14.8235 21.6202 15.0033 21.6562 15.1938 21.6562Z" fill="#2260FF"/>
</g>
</svg>
