<svg width="20" height="20" viewBox="0 0 20 20" fill="none" xmlns="http://www.w3.org/2000/svg">
<path d="M1.96 1C1.42981 1 1 1.56406 1 2.25986V17.7401C1 18.4359 1.42981 19 1.96 19C7.60148 19 10.097 19 18.04 19C18.5702 19 19 18.4359 19 17.7401V2.25986C19 1.56406 18.5702 1 18.04 1H1.96Z" stroke="#2260FF" stroke-width="2"/>
<path d="M14.9354 10.1452C14.9354 12.7908 12.7907 14.9355 10.1451 14.9355C7.49944 14.9355 5.35474 12.7908 5.35474 10.1452C5.35474 7.49956 7.49944 5.35486 10.1451 5.35486C12.7907 5.35486 14.9354 7.49956 14.9354 10.1452Z" stroke="#2260FF" stroke-width="2"/>
<path d="M16.6775 4.48388C16.6775 4.9649 16.2875 5.35485 15.8065 5.35485C15.3255 5.35485 14.9355 4.9649 14.9355 4.48388C14.9355 4.00286 15.3255 3.61292 15.8065 3.61292C16.2875 3.61292 16.6775 4.00286 16.6775 4.48388Z" fill="#2260FF"/>
</svg>
