<svg width="19" height="28" viewBox="0 0 19 28" fill="none" xmlns="http://www.w3.org/2000/svg">
<path d="M8.05933 27H10.2203M6.61865 20.3894C4.8178 20.3894 5.17797 17.7101 3.84418 16.1676C3.83338 16.1478 3.82284 16.1281 3.81257 16.1085C2.08567 14.5221 1 12.2239 1 9.66722C1 4.88045 4.80558 1 9.5 1C14.1944 1 18 4.88045 18 9.66722C18 12.255 16.8878 14.5779 15.1242 16.166L15.123 16.1676C13.4619 17.8937 14.0021 20.3894 12.0212 20.3894M6.61865 20.3894H5.89831M6.61865 20.3894H12.0212M12.0212 20.3894H12.7415M4.09746 20.3894H5.89831M5.89831 20.3894V23.6947C5.89831 24.7089 6.70458 25.531 7.69916 25.531H10.9407C11.9353 25.531 12.7415 24.7089 12.7415 23.6947V20.3894M12.7415 20.3894H14.5424" stroke="#2260FF" stroke-width="2" stroke-linecap="round"/>
</svg>
