<svg width="33" height="33" viewBox="0 0 33 33" fill="none" xmlns="http://www.w3.org/2000/svg">
<mask id="mask0_3550_86" style="mask-type:alpha" maskUnits="userSpaceOnUse" x="0" y="0" width="33" height="33">
<rect width="33" height="33" fill="#D9D9D9"/>
</mask>
<g mask="url(#mask0_3550_86)">
<path d="M16.8967 26.8127C16.56 26.8127 16.2731 26.6941 16.0359 26.4569C15.799 26.2199 15.6805 25.933 15.6805 25.5961V20.202C15.6805 19.8654 15.799 19.5784 16.0359 19.3413C16.2731 19.1043 16.56 18.9858 16.8967 18.9858H20.2283C20.565 18.9858 20.8519 19.1043 21.0891 19.3413C21.3263 19.5784 21.4448 19.8654 21.4448 20.202V25.5961C21.4448 25.933 21.3263 26.2199 21.0891 26.4569C20.8519 26.6941 20.565 26.8127 20.2283 26.8127H16.8967ZM17.3198 25.1733H19.8055V20.6252H17.3198V25.1733ZM23.5073 30.0388V26.5219C23.5073 26.1763 23.6236 25.8872 23.8563 25.6546C24.0889 25.4217 24.3779 25.3053 24.7235 25.3053H27.6588V23.8513H23.5073V22.2116H28.0816C28.4272 22.2116 28.7163 22.328 28.9489 22.5608C29.1817 22.7934 29.2982 23.0825 29.2982 23.4281V25.7285C29.2982 26.0741 29.1817 26.3632 28.9489 26.5958C28.7163 26.8286 28.4272 26.945 28.0816 26.945H25.1467V28.3991H29.2982V30.0388H23.5073ZM12.6658 29.507C9.97058 29.248 7.75867 28.1296 6.03006 26.1516C4.30169 24.1737 3.4375 21.7815 3.4375 18.9752C3.4375 16.8421 4.29115 14.5041 5.99844 11.9613C7.70573 9.41846 10.2896 6.64783 13.75 3.64941C16.4136 5.94269 18.5585 8.12057 20.1847 10.1831C21.8108 12.2456 22.9139 14.1749 23.4939 15.9711H21.3417C20.7846 14.5893 19.8728 13.0967 18.6062 11.4934C17.3396 9.88997 15.7208 8.19012 13.75 6.39392C11.0229 8.89183 8.96615 11.195 7.57969 13.3033C6.19323 15.4116 5.5 17.3022 5.5 18.9752C5.5 21.2281 6.16458 23.1345 7.49375 24.6945C8.82292 26.2546 10.5469 27.1643 12.6658 27.4235V29.507Z" fill="#2260FF"/>
</g>
</svg>
