<svg width="25" height="25" viewBox="0 0 25 25" fill="none" xmlns="http://www.w3.org/2000/svg">
<path d="M7.72308 19.6107V13.6412M17.2769 19.6107V13.6412M2.76923 12.5968V10.8321C2.76923 5.40196 7.20506 1 12.6769 1C18.1488 1 22.5846 5.40196 22.5846 10.8321V12.8382M4.18462 21.1908C4.18462 22.7423 5.57625 24 7.29291 24H12.6769M5.95385 11.8855C6.14927 11.8855 6.30769 12.1035 6.30769 12.3724V20.5284C6.30769 20.7973 6.14927 21.0153 5.95385 21.0153C1.54787 21.0153 1 18.4068 1 16.4504C1 14.494 1.54052 11.8855 5.95385 11.8855ZM19.0462 11.8855C18.8507 11.8855 18.6923 12.1035 18.6923 12.3724L18.6923 20.5284C18.6923 20.7973 18.8507 21.0153 19.0462 21.0153C23.4521 21.0153 24 18.4068 24 16.4504C24 14.494 23.4595 11.8855 19.0462 11.8855Z" stroke="#2260FF" stroke-width="2" stroke-linecap="round" stroke-linejoin="round"/>
</svg>
