<svg width="28" height="28" viewBox="0 0 28 28" fill="none" xmlns="http://www.w3.org/2000/svg">
<circle cx="14" cy="14" r="14" fill="#2260FF"/>
<path d="M14.8014 21.2719L20.2861 18.1783M11.7962 9.52915L17.7399 19.6145M14.2695 7.73332C14.3596 7.8887 14.3011 8.09028 14.1387 8.18358L9.21303 11.013C9.05062 11.1063 8.84587 11.056 8.75571 10.9006C6.72297 7.3976 8.04557 6.05707 9.22709 5.37836C10.4086 4.69966 12.2334 4.22446 14.2695 7.73332ZM14.4327 8.01465L20.2021 17.9571C20.2724 18.0782 20.3065 18.2169 20.299 18.3565C20.2039 20.1185 19.9608 21.6625 19.7996 22.5394C19.723 22.9558 19.3015 23.2002 18.8999 23.0606C18.0519 22.7659 16.5778 22.2093 14.9878 21.4075C14.8624 21.3442 14.7586 21.2454 14.6883 21.1242L8.91896 11.1819L14.4327 8.01465Z" stroke="#CAD6FF" stroke-linecap="round"/>
</svg>
