<svg width="24" height="24" viewBox="0 0 24 24" fill="none" xmlns="http://www.w3.org/2000/svg">
<path d="M23 12C23 18.0751 18.0751 23 12 23M23 12C23 5.92487 18.0751 1 12 1M23 12H1M12 23C5.92487 23 1 18.0751 1 12M12 23C14.3228 23 16.2059 18.0751 16.2059 12C16.2059 5.92487 14.3228 1 12 1M12 23C9.67716 23 7.79412 18.0751 7.79412 12C7.79412 5.92487 9.67716 1 12 1M1 12C1 5.92487 5.92487 1 12 1M2.94118 5.85294C2.94118 5.85294 6.50277 7.47059 12.0774 7.47059C17.6521 7.47059 21.0588 5.85294 21.0588 5.85294M21.0588 18.1471C21.0588 18.1471 17.4972 16.5294 11.9226 16.5294C6.34791 16.5294 2.94118 18.1471 2.94118 18.1471" stroke="#2260FF" stroke-width="2" stroke-linecap="round"/>
</svg>
